<svg fill="none" height="40" viewBox="0 0 128 40" width="128" xmlns="http://www.w3.org/2000/svg" xmlns:xlink="http://www.w3.org/1999/xlink"><linearGradient id="a" gradientUnits="userSpaceOnUse" x1="16" x2="16" y1="4" y2="36"><stop offset="0" stop-color="#7bcbd4"/><stop offset="1" stop-color="#29c6b7"/></linearGradient><path d="m48.3735 18.3567c2.193 0 3.1709 1.4225 3.4969 2.6967l3.0819-1.1261c-.5926-2.3114-2.7263-4.7414-6.6084-4.7414-4.1488 0-7.3789 3.2005-7.3789 7.6456 0 4.3859 3.2301 7.6753 7.4678 7.6753 3.7932 0 5.9565-2.4597 6.6381-4.7119l-3.0227-1.0965c-.326 1.0965-1.3632 2.6671-3.6154 2.6671-2.1633 0-4.0302-1.6299-4.0302-4.534 0-2.9042 1.8669-4.4748 3.9709-4.4748zm12.0024 3.2302c.0593-1.8374 1.0965-3.2598 2.9931-3.2598 2.1633 0 2.9634 1.4224 2.9634 3.2005v8.5346h3.4376v-9.1273c0-3.1709-1.7188-5.7194-5.2749-5.7194-1.5114 0-3.1413.5334-4.1192 1.8077v-8.41614h-3.4376v21.45514h3.4376zm11.5046 4.5636c0 2.2819 1.8669 4.3563 4.8896 4.3563 2.3411 0 3.7636-1.1854 4.4452-2.2819 0 1.1558.1185 1.7484.1481 1.8373h3.2005c-.0296-.1481-.1778-1.0075-.1778-2.3114v-7.1715c0-2.8745-1.6891-5.3934-6.1343-5.3934-3.5561 0-5.8083 2.2225-6.075 4.7118l3.1412.7112c.1482-1.4521 1.1558-2.6078 2.9635-2.6078 1.8966 0 2.7263.9779 2.7263 2.1929 0 .5038-.2371.9187-1.0668 1.0372l-3.7043.5631c-2.4596.3556-4.3562 1.778-4.3562 4.3562zm5.5416 1.6595c-1.3632 0-2.1041-.889-2.1041-1.8669 0-1.1854.8594-1.7781 1.9263-1.9559l3.7635-.563v.6519c0 2.8153-1.6595 3.7339-3.5857 3.7339zm23.4469-12.1796h-4.5632l-5.5416 5.8379v-12.86124h-3.4079v21.45514h3.4079v-4.0302l1.7781-1.867 4.2377 5.8972h4.208l-6.0454-8.3272zm9.867-.0889c-.148-.0297-.504-.0889-.919-.0889-1.896 0-3.496.9186-4.178 2.4892v-2.3114h-3.349v14.4318h3.438v-6.8751c0-2.6967 1.215-4.2377 3.882-4.2377.356 0 .741.0296 1.126.0889zm.824 10.609c0 2.2819 1.867 4.3563 4.89 4.3563 2.341 0 3.763-1.1854 4.445-2.2819 0 1.1558.119 1.7484.148 1.8373h3.201c-.03-.1481-.178-1.0075-.178-2.3114v-7.1715c0-2.8745-1.689-5.3934-6.134-5.3934-3.557 0-5.809 2.2225-6.075 4.7118l3.141.7112c.148-1.4521 1.156-2.6078 2.963-2.6078 1.897 0 2.727.9779 2.727 2.1929 0 .5038-.238.9187-1.067 1.0372l-3.705.5631c-2.459.3556-4.356 1.778-4.356 4.3562zm5.542 1.6595c-1.363 0-2.104-.889-2.104-1.8669 0-1.1854.859-1.7781 1.926-1.9559l3.764-.563v.6519c0 2.8153-1.66 3.7339-3.586 3.7339z" fill="#fff"/><path d="m32 20c0-8.8366-7.1634-16-16-16-8.83656 0-16 7.1634-16 16s7.16344 16 16 16c8.8366 0 16-7.1634 16-16z" fill="url(#a)"/><path d="m8.66091 20.6829 10.90639-10.83128c.2037-.20235.5317.04389.3941.29598l-4.0593 7.4399c-.0906.1659.0295.3683.2185.3683h7.0151c.226 0 .3351.2768.1699.4311l-12.293 11.4729c-.2204.2057-.5485-.0841-.3715-.3282l5.8192-8.0277c.1193-.1646.0018-.3952-.2016-.3952h-7.42231c-.22227 0-.33319-.2691-.17548-.4258z" fill="#fff"/></svg>