<svg width="0" height="0">
  <symbol id="ymcheungTw" viewBox="0 0 128 128" fill="none" xmlns="http://www.w3.org/2000/svg">
    <rect width="128" height="128" rx="40" fill="#0F100F"/>
    <path d="M34.416 85V67.528L18 40.2H27.344L38.512 58.888L49.712 40.2H58.992L42.64 67.464V85H34.416Z" fill="#67D5B4"/>
    <path d="M84.669 85.768L73.213 60.808C73.0637 60.488 72.9037 60.1146 72.733 59.688C72.5623 59.2613 72.413 58.8346 72.285 58.408C72.3063 58.7493 72.317 59.1546 72.317 59.624C72.3383 60.0933 72.349 60.5093 72.349 60.872V85H64.061V40.2H72.349L83.709 65.608C83.9223 66.0773 84.1143 66.5466 84.285 67.016C84.477 67.464 84.6583 67.9333 84.829 68.424C84.9997 67.9333 85.1703 67.4533 85.341 66.984C85.5117 66.5146 85.693 66.056 85.885 65.608L97.469 40.2H105.245V85H96.957V60.808C96.957 60.424 96.957 59.9973 96.957 59.528C96.9783 59.0586 96.989 58.6746 96.989 58.376C96.861 58.76 96.701 59.176 96.509 59.624C96.3383 60.0506 96.1677 60.4453 95.997 60.808L84.669 85.768Z" fill="#67D5B4"/>
  </symbol>
  <symbol id="github" viewBox="0 0 128 128" fill="none" xmlns="http://www.w3.org/2000/svg">
    <path d="M64 8C33.0787 8 8 33.074 8 64C8 88.7427 24.044 109.733 46.2993 117.139C49.0947 117.657 50 115.921 50 114.447V104.021C34.4227 107.409 31.1793 97.4133 31.1793 97.4133C28.6313 90.9407 24.9587 89.2187 24.9587 89.2187C19.8767 85.742 25.346 85.8167 25.346 85.8167C30.9693 86.2087 33.928 91.5893 33.928 91.5893C38.9213 100.148 47.0273 97.6747 50.224 96.242C50.7233 92.6253 52.1747 90.152 53.78 88.7567C41.3433 87.3333 28.2673 82.5313 28.2673 61.0787C28.2673 54.9607 30.456 49.9673 34.0353 46.0473C33.4567 44.6333 31.5387 38.9353 34.5813 31.226C34.5813 31.226 39.2853 29.7233 49.986 36.966C54.452 35.7247 59.24 35.104 64 35.0807C68.76 35.104 73.5527 35.7247 78.028 36.966C88.7193 29.7233 93.414 31.226 93.414 31.226C96.4613 38.94 94.5433 44.638 93.9647 46.0473C97.558 49.9673 99.728 54.9653 99.728 61.0787C99.728 82.5873 86.6287 87.324 74.1593 88.71C76.166 90.446 78 93.8527 78 99.0793V114.447C78 115.935 78.896 117.685 81.738 117.135C103.975 109.719 120 88.7333 120 64C120 33.074 94.926 8 64 8Z" fill="hsl(210,8%,84%)"/>
  </symbol>
</svg>
