<svg fill="none" height="40" viewBox="0 0 98 40" width="98" xmlns="http://www.w3.org/2000/svg" xmlns:xlink="http://www.w3.org/1999/xlink"><linearGradient id="a"><stop offset="0" stop-color="#fff"/><stop offset="1" stop-color="#fff" stop-opacity="0"/></linearGradient><linearGradient id="b" gradientUnits="userSpaceOnUse" x1="10.2151" x2="10.2151" xlink:href="#a" y1="8" y2="31.5102"/><linearGradient id="c" gradientUnits="userSpaceOnUse" x1="3.99845" x2="3.99845" xlink:href="#a" y1="27.8596" y2="31.5102"/><path clip-rule="evenodd" d="m19.5328 26.1306c.2115 2.7164.2115 3.9898.2115 5.3796h-6.2855c0-.3027.0055-.5796.0109-.8605.017-.8731.0348-1.7834-.1066-3.6218-.187-2.6916-1.3462-3.2897-3.47755-3.2897h-1.88826-7.99729v-4.8972h10.1846c2.6923 0 4.0385-.8189 4.0385-2.9871 0-1.9065-1.3462-3.0619-4.0385-3.0619h-10.1846v-4.792h11.3065c6.0949 0 9.1237 2.8785 9.1237 7.4765 0 3.4392-2.1314 5.6822-5.0106 6.056 2.4305.4861 3.8514 1.8692 4.1132 4.5981z" fill="url(#b)" fill-rule="evenodd"/><path clip-rule="evenodd" d="m19.5328 26.1306c.2115 2.7164.2115 3.9898.2115 5.3796h-6.2855c0-.3027.0055-.5796.0109-.8605.017-.8731.0348-1.7834-.1066-3.6218-.187-2.6916-1.3462-3.2897-3.47755-3.2897h-1.88826-7.99729v-4.8972h10.1846c2.6923 0 4.0385-.8189 4.0385-2.9871 0-1.9065-1.3462-3.0619-4.0385-3.0619h-10.1846v-4.792h11.3065c6.0949 0 9.1237 2.8785 9.1237 7.4765 0 3.4392-2.1314 5.6822-5.0106 6.056 2.4305.4861 3.8514 1.8692 4.1132 4.5981z" fill="#fff" fill-rule="evenodd"/><path d="m0 31.5102v-3.6506h6.64594c1.11006 0 1.35109.8232 1.35109 1.3142v2.3364z" fill="url(#c)"/><g fill="#fff"><path d="m0 31.5102v-3.6506h6.64594c1.11006 0 1.35109.8232 1.35109 1.3142v2.3364z"/><path d="m0 31.5106v-3.6507h6.64594c1.11006 0 1.35109.8232 1.35109 1.3142v2.3365z"/><path d="m95.6056 14.8784h-6.2445l-2.842 3.9626-2.7669-3.9626h-6.6933l6.0201 8.187-6.5437 8.4859h6.2446l3.3279-4.5233 3.328 4.5233h6.6933l-6.5812-8.7477z"/><path d="m33.5118 25.6075c-.5609 1.3084-1.6079 1.8691-3.2532 1.8691-1.8323 0-3.3279-.972-3.4776-3.028h11.704v-1.6823c0-4.5233-2.954-8.3364-8.5255-8.3364-5.1975 0-9.0865 3.7756-9.0865 9.0467 0 5.3084 3.8141 8.5234 9.1612 8.5234 4.4124 0 7.4786-2.1308 8.3386-5.944zm-6.6559-4.0749c.2244-1.57 1.0844-2.7663 3.0288-2.7663 1.7948 0 2.7671 1.2711 2.8419 2.7663z"/><path d="m56.2724 17.7196c-.7106-1.944-2.2436-3.2897-5.1977-3.2897-2.5053 0-4.3001 1.1215-5.1975 2.9532v-2.5047h-6.0576v16.673h6.0576v-8.1869c0-2.5048.7104-4.1495 2.6923-4.1495 1.8322 0 2.281 1.1962 2.281 3.4766v8.8598h6.0575v-8.1869c0-2.5048.6731-4.1495 2.6923-4.1495 1.8322 0 2.2436 1.1962 2.2436 3.4766v8.8598h6.0576v-10.4673c0-3.4766-1.3461-6.6542-5.9455-6.6542-2.8044 0-4.7862 1.4205-5.6836 3.2897z"/><path d="m69.8828 14.8785v16.673h6.0576v-16.673zm-.0375-1.5701h6.1324v-5.3084h-6.1324z"/></g></svg>