<svg fill="none" height="96" viewBox="0 0 96 96" width="96" xmlns="http://www.w3.org/2000/svg" xmlns:xlink="http://www.w3.org/1999/xlink"><clipPath id="a"><path d="m0 0h96v96h-96z"/></clipPath><filter id="b"><feFlood flood-color="#fff" result="FloodResult"/><feComposite in="FloodResult" in2="SourceGraphic" operator="in" result="comp"/></filter><clipPath id="c"><path d="m0 0h96v96h-96"/></clipPath><mask id="d" height="96" maskUnits="userSpaceOnUse" width="96" x="0" y="0"><g fill="none" filter="url(#b)"><ellipse cx="48" cy="48" fill="#b1b2b5" rx="48" ry="48"/></g></mask><g clip-path="url(#a)"><path d="m0 0h96v96h-96z"/><g clip-path="url(#c)" rx="0" ry="0"><g mask="url(#d)"><g fill="#000" rx="0" ry="0"><path d="m0 0h96v96h-96z" fill="#e26f54" rx="0" ry="0"/><path d="m17.938-9.432 58.307 58.308-6.017 6.017-58.307-58.307z" fill="#fff" rx="0" ry="0"/><path d="m78.227-7.677 6.018 6.018-57.261 57.261-6.018-6.018z" opacity=".36" rx="0" ry="0"/><path d="m77.527-8.377 6.018 6.018-57.261 57.26-6.018-6.017z" fill="#bdccd4" rx="0" ry="0"/><path d="m26.98 43.575 55.84 55.839-6.018 6.018-55.84-55.84z" opacity=".36" rx="0" ry="0"/><path d="m26.28 42.875 55.839 55.839-6.017 6.018-55.84-55.84z" fill="#bdccd4" rx="0" ry="0"/><path d="m70.938 43.571 6.017 6.017-55.839 55.84-6.018-6.018z" opacity=".36" rx="0" ry="0"/><path d="m70.238 42.871 6.017 6.017-55.839 55.84-6.018-6.017z" fill="#fff" rx="0" ry="0"/></g></g></g></g></svg>