<svg width="72" height="40" viewBox="0 0 72 40" fill="none" xmlns="http://www.w3.org/2000/svg">
<path d="M66.5946 6H2.27027C1.01643 6 0 7.01643 0 8.27027V31.7297C0 32.9836 1.01643 34 2.27027 34H66.5946C67.8484 34 68.8649 32.9836 68.8649 31.7297V8.27027C68.8649 7.01643 67.8484 6 66.5946 6Z" fill="#FCB32C"/>
<path fill-rule="evenodd" clip-rule="evenodd" d="M23.4595 11.4271V27.6937H20.4324V18.735L14.8829 24.2846L9.45946 18.8611V27.8198H6.43243V11.5533L14.8829 20.0037L23.4595 11.4271Z" fill="black"/>
<path fill-rule="evenodd" clip-rule="evenodd" d="M36.7027 11.045V25.8018H33.6757V11.045H36.7027Z" fill="black"/>
<path fill-rule="evenodd" clip-rule="evenodd" d="M27.3082 20.4396L29.4486 18.2992L35.1892 24.0398L40.9298 18.2992L43.0702 20.4396L35.1892 28.3207L27.3082 20.4396Z" fill="black"/>
<path fill-rule="evenodd" clip-rule="evenodd" d="M56.25 19.1157L62.4935 25.3571L60.3534 27.4979L54.1096 21.2562L47.863 27.5027L45.7226 25.3623L51.9688 19.1161L45.5966 12.7461L47.7367 10.6053L54.1092 16.9757L60.4793 10.6055L62.6198 12.746L56.25 19.1157Z" fill="black"/>
</svg>
