<svg width="168" xmlns="http://www.w3.org/2000/svg" height="40" fill="none"><defs><clipPath id="a" class="frame-clip frame-clip-def"><rect rx="0" ry="0" width="168" height="40"/></clipPath></defs><g clip-path="url(#a)"><g class="fills"><rect rx="0" ry="0" width="168" height="40" class="frame-background"/></g><g class="frame-children"><path d="M43.284 23.1c.171 1.602 1.628 4.347 5.855 4.347 3.684 0 5.455-2.345 5.455-4.633 0-2.058-1.399-3.745-4.17-4.317l-1.999-.429c-.771-.143-1.285-.572-1.285-1.259 0-.8.799-1.401 1.799-1.401 1.599 0 2.199 1.058 2.314 1.888l3.17-.715c-.171-1.516-1.514-4.061-5.512-4.061-3.028 0-5.256 2.088-5.256 4.604 0 1.973 1.228 3.603 3.942 4.204l1.856.428c1.085.229 1.514.744 1.514 1.373 0 .743-.6 1.401-1.857 1.401-1.656 0-2.484-1.029-2.57-2.144l-3.256.714ZM66.734 27.018h3.627a23.18 23.18 0 0 1-.143-2.545V12.949h-3.799v8.178c0 1.63-.971 2.774-2.656 2.774-1.771 0-2.57-1.258-2.57-2.831v-8.121h-3.799v8.893c0 3.06 1.942 5.548 5.341 5.548 1.485 0 3.114-.572 3.885-1.888 0 .572.056 1.23.114 1.516Z" style="fill: rgb(255, 255, 255);" class="fills"/><defs><linearGradient x1="53.974" y1="54.974" x2="94.163" y2="71.829" id="b" gradientUnits="userSpaceOnUse" gradientTransform="matrix(.28589 0 0 .28589 .002 4.014)"><stop stop-color="#249361"/><stop offset="1" stop-color="#3ECF8E"/></linearGradient></defs><path d="M18.215 35.543c-.818 1.03-2.475.466-2.495-.849l-.288-19.226H28.36c2.341 0 3.647 2.704 2.191 4.538L18.215 35.543Z" fill="url(#b)" style="fill: url(&quot;#b&quot;);" class="fills"/><defs><linearGradient x1="36.156" y1="30.578" x2="54.484" y2="65.081" id="c" gradientUnits="userSpaceOnUse" gradientTransform="matrix(.28589 0 0 .28589 .002 4.014)"><stop/><stop offset="1" stop-opacity="0"/></linearGradient></defs><path d="M18.215 35.543c-.818 1.03-2.475.466-2.495-.849l-.288-19.226H28.36c2.341 0 3.647 2.704 2.191 4.538L18.215 35.543Z" fill="url(#c)" fill-opacity=".2" style="fill: url(&quot;#c&quot;); fill-opacity: 0.2;" class="fills"/><path d="M12.957 4.606c.818-1.029 2.475-.465 2.495.85l.126 19.226H2.812c-2.341 0-3.647-2.705-2.191-4.539L12.957 4.606Z" style="fill: rgb(62, 207, 142);" class="fills"/><path d="M78.07 32.451v-6.806c.686.944 2.114 1.716 4.056 1.716 3.97 0 6.626-3.145 6.626-7.406 0-4.175-2.37-7.32-6.483-7.32-2.113 0-3.684.943-4.313 2.03v-1.716h-3.684v19.502h3.798Zm6.941-12.467c0 2.516-1.542 3.974-3.485 3.974-1.941 0-3.512-1.487-3.512-3.974 0-2.488 1.571-3.947 3.512-3.947 1.943 0 3.485 1.459 3.485 3.947ZM90.903 23.186c0 2.202 1.828 4.232 4.827 4.232 2.085 0 3.427-.972 4.141-2.087 0 .543.057 1.315.143 1.687h3.484c-.085-.486-.171-1.487-.171-2.23v-6.92c0-2.831-1.656-5.348-6.112-5.348-3.77 0-5.798 2.431-6.026 4.633l3.37.715c.114-1.23 1.028-2.288 2.684-2.288 1.6 0 2.371.829 2.371 1.83 0 .486-.256.886-1.056 1.001l-3.456.515c-2.342.343-4.199 1.744-4.199 4.26Zm5.627 1.401c-1.228 0-1.828-.8-1.828-1.63 0-1.086.771-1.629 1.742-1.772l3.17-.487v.63c0 2.487-1.485 3.259-3.084 3.259ZM110.841 27.018v-1.716c.742 1.201 2.227 2.059 4.169 2.059 3.999 0 6.627-3.174 6.627-7.435 0-4.174-2.371-7.349-6.484-7.349-2.085 0-3.627.916-4.255 1.916V6.315h-3.742v20.703h3.685Zm6.997-7.063c0 2.574-1.542 4.003-3.485 4.003-1.913 0-3.512-1.458-3.512-4.003 0-2.574 1.599-3.975 3.512-3.975 1.943 0 3.485 1.401 3.485 3.975ZM123.788 23.186c0 2.202 1.827 4.232 4.826 4.232 2.085 0 3.428-.972 4.141-2.087 0 .543.058 1.315.143 1.687h3.485c-.085-.486-.171-1.487-.171-2.23v-6.92c0-2.831-1.657-5.348-6.112-5.348-3.77 0-5.798 2.431-6.027 4.633l3.37.715c.115-1.23 1.029-2.288 2.685-2.288 1.6 0 2.371.829 2.371 1.83 0 .486-.257.886-1.057 1.001l-3.456.515c-2.342.343-4.198 1.744-4.198 4.26Zm5.626 1.401c-1.228 0-1.828-.8-1.828-1.63 0-1.086.771-1.629 1.743-1.772l3.17-.487v.63c0 2.487-1.485 3.259-3.085 3.259ZM138.841 23.1c.171 1.602 1.628 4.347 5.855 4.347 3.684 0 5.455-2.345 5.455-4.633 0-2.058-1.399-3.745-4.17-4.317l-1.999-.429c-.771-.143-1.285-.572-1.285-1.259 0-.8.799-1.401 1.799-1.401 1.6 0 2.199 1.058 2.314 1.888l3.17-.715c-.172-1.516-1.514-4.061-5.512-4.061-3.028 0-5.256 2.088-5.256 4.604 0 1.973 1.228 3.603 3.942 4.204l1.856.428c1.086.229 1.514.744 1.514 1.373 0 .743-.6 1.401-1.857 1.401-1.656 0-2.484-1.029-2.57-2.144l-3.256.714ZM155.92 18.382c.086-1.287 1.171-2.774 3.142-2.774 2.17 0 3.085 1.373 3.142 2.774h-6.284Zm6.655 3.66c-.457 1.259-1.428 2.145-3.199 2.145-1.885 0-3.456-1.344-3.541-3.203h10.053c0-.057.057-.629.057-1.172 0-4.518-2.599-7.292-6.94-7.292-3.599 0-6.912 2.917-6.912 7.406 0 4.747 3.398 7.521 7.254 7.521 3.456 0 5.684-2.03 6.398-4.461l-3.17-.944Z" style="fill: rgb(255, 255, 255);" class="fills"/></g></g></svg>