<svg fill="none" viewBox="0 0 96 96" height="40" xmlns="http://www.w3.org/2000/svg" xmlns:xlink="http://www.w3.org/1999/xlink"><clipPath id="a"><path d="m0 0h96v96h-96z"/></clipPath><g clip-path="url(#a)"><path d="m0 0h96v96h-96z"/><path clip-rule="evenodd" d="m18.75 16.5c-1.243 0-2.25 1.007-2.25 2.25v49.5h-4.5v-49.5c0-3.728 3.022-6.75 6.75-6.75h60.284c3.007 0 4.513 3.635 2.386 5.761l-37.129 37.13h10.459v-4.641h4.5v5.766c0 1.864-1.511 3.375-3.375 3.375h-16.084l-7.734 7.734h35.068v-28.125h4.5v28.125c0 2.485-2.015 4.5-4.5 4.5h-39.568l-7.875 7.875h57.568c1.243 0 2.25-1.007 2.25-2.25v-49.5h4.5v49.5c0 3.728-3.022 6.75-6.75 6.75h-60.284c-3.007 0-4.513-3.635-2.386-5.762l36.988-36.988h-10.318v4.5h-4.5v-5.625c0-1.864 1.511-3.375 3.375-3.375h15.943l7.875-7.875h-35.068v28.125h-4.5v-28.125c0-2.485 2.015-4.5 4.5-4.5h39.568l7.875-7.875z" fill="#fff" fill-rule="evenodd"/></g></svg>
