<svg fill="none" height="40" viewBox="0 0 100 40" width="100" xmlns="http://www.w3.org/2000/svg"><path clip-rule="evenodd" d="m19.955 5.80179c.2614.32446.3947.7624.6612 1.63787l5.8233 19.12974c-2.1874-1.135-4.535-1.9298-6.9621-2.3571l-3.7915-12.8128c-.0302-.1022-.0927-.1919-.1782-.2556-.0854-.0638-.1892-.0981-.2958-.098-.1066.0002-.2102.0348-.2955.0988-.0852.064-.1475.1539-.1774.2562l-3.7457 12.805c-2.43795.4252-4.79641 1.2213-6.9933 2.3607l5.85175-19.13124c.26755-.87427.40105-1.31126.66245-1.63505.2308-.28598.5309-.50808.8719-.64514.3862-.15517.8432-.15517 1.7574-.15517h4.1797c.9153 0 1.373 0 1.7596.15557.3412.13733.6415.35981.8722.64622z" fill="#e2e5e9" fill-rule="evenodd"/><path clip-rule="evenodd" d="m20.6518 27.4798c-.9599.8209-2.8761 1.3807-5.0832 1.3807-2.709 0-4.9795-.8434-5.58186-1.9776-.21541.6502-.26368 1.394-.26368 1.8693 0 0-.14199 2.3336 1.48104 3.9567 0-.8428.6832-1.526 1.526-1.526 1.4446 0 1.4429 1.2603 1.4416 2.2827v.0913c0 1.552.9485 2.8823 2.2974 3.443-.2076-.4273-.3152-.8964-.3145-1.3715 0-1.4801.869-2.0313 1.879-2.6717.8035-.5096 1.6963-1.0758 2.3116-2.2118.3313-.6118.5044-1.2969.5033-1.9927 0-.4436-.069-.8712-.1967-1.2724z" fill="#ff5d01" fill-rule="evenodd"/><path d="m38.6757 27.9992c2.3833 0 4.1718-.8483 4.9053-2.2922 0 .6875.0459 1.398.1608 1.9485h3.9185c-.1838-.8024-.2749-1.9026-.2749-3.3466v-3.5295c0-3.3473-1.9707-4.9283-6.3493-4.9283-3.8281 0-6.3945 1.581-6.6923 4.1711h4.08c.1378-1.1232 1.0772-1.7418 2.6123-1.7418 1.5129 0 2.3612.6186 2.3612 1.9026v.3437l-4.149.3668c-2.0166.2067-3.1627.5505-3.9651 1.1002-.8483.5727-1.2832 1.4439-1.2832 2.5212 0 2.1544 1.7877 3.4836 4.6757 3.4836zm1.5128-2.3841c-1.3299 0-2.1315-.5268-2.1315-1.3751 0-.8713.6646-1.3291 2.3375-1.5358l3.0717-.3208v.6875c0 1.5359-1.3292 2.5442-3.2777 2.5442zm15.739 2.3841c3.9881 0 6.0277-1.4899 6.0277-3.897 0-1.9937-1.1461-3.0939-3.9192-3.4606l-3.4606-.3905c-.9862-.137-1.3988-.3889-1.3988-.9394 0-.6646.6645-.9624 2.1774-.9624 2.0863 0 3.5295.4816 4.6994 1.421l1.8559-1.8566c-1.2824-1.3291-3.5066-2.0618-6.2567-2.0618-3.8741 0-6.0285 1.375-6.0285 3.6903 0 2.0166 1.3291 3.1398 4.08 3.5065l3.1168.3675c1.2381.16 1.6048.3889 1.6048.9846 0 .6883-.6875 1.055-2.2923 1.055-2.3834 0-3.9881-.6423-5.0654-1.8336l-2.1085 1.7418c1.398 1.7418 3.7822 2.636 6.9672 2.636zm9.264-9.215v4.8372c0 2.842 1.6047 4.286 5.0424 4.286 1.0543 0 1.8796-.1149 2.659-.3446v-2.979c-.4127.0919-.9164.1837-1.5818.1837-1.4439 0-2.1544-.6423-2.1544-1.9944v-3.9889h3.7592v-2.5886h-3.7592v-4.1956l-3.9652 1.4669v2.728h-2.5671v2.5893zm13.4175-2.5893h-3.6213v11.4606h3.9651v-4.2868c0-1.2372.2749-2.3604 1.0313-3.0709.5957-.5505 1.444-.8483 2.636-.8483.4357 0 .7795.046 1.1684.0919v-3.5984c-.2519-.046-.4349-.046-.7557-.046-2.2693 0-3.8051 1.3062-4.4238 3.4377zm13.0156 11.8043c4.1949 0 7.151-2.2233 7.151-6.0974 0-3.8511-2.9561-6.0507-7.151-6.0507-4.217 0-7.1738 2.2004-7.1738 6.0507 0 3.8741 2.9568 6.0974 7.1738 6.0974zm0-2.636c-1.9255 0-3.1398-1.238-3.1398-3.4606 0-2.2242 1.2143-3.4155 3.1398-3.4155 1.9026 0 3.1177 1.1913 3.1177 3.4147s-1.2151 3.4606-3.1177 3.4606z" fill="#e2e5e9"/></svg>