<svg width="130" xmlns="http://www.w3.org/2000/svg" height="40" fill="none"><g data-testid="Board"><defs><clipPath id="a" class="frame-clip frame-clip-def"><rect rx="0" ry="0" width="130" height="40"/></clipPath></defs><g clip-path="url(#a)"><g class="fills"><rect rx="0" ry="0" width="130" height="40" class="frame-background"/></g><g class="frame-children"><path d="m51.62 22.119-2.24-6.037a.284.284 0 0 0-.532 0l-2.239 6.037a.284.284 0 0 0 .266.382h4.478a.284.284 0 0 0 .267-.382Zm1.034 3.393h-7.079a.283.283 0 0 0-.266.185l-1.394 3.756a.283.283 0 0 1-.266.185h-3.068a.282.282 0 0 1-.235-.125.282.282 0 0 1-.029-.264l7.065-17.599a.282.282 0 0 1 .263-.178h2.938c.116 0 .22.071.264.178l7.064 17.598a.284.284 0 0 1-.263.39H54.58a.283.283 0 0 1-.266-.185l-1.394-3.756a.285.285 0 0 0-.266-.185Zm6.694-7.864h2.625c.157 0 .284.127.284.284v11.422a.284.284 0 0 1-.284.284h-2.625a.284.284 0 0 1-.283-.284V17.932c0-.157.127-.284.283-.284Zm12.48 2.779a.284.284 0 0 1-.284.284h-.079c-1.298 0-2.25.311-2.855.934-.606.623-.908 1.652-.908 3.088v4.621a.284.284 0 0 1-.284.284h-2.599a.284.284 0 0 1-.283-.284V17.932c0-.157.127-.284.283-.284h2.573c.157 0 .284.127.284.284v2.259h.052c.311-.934.804-1.652 1.479-2.154.675-.501 1.505-.752 2.491-.752h.13v3.142Zm7.176-.106a.284.284 0 0 0-.284.284v4.751c0 .484.095.83.285 1.038.191.207.519.311.986.311h.262c.156 0 .283.127.283.284v2.391a.284.284 0 0 1-.283.284h-1.118c-1.159 0-2.05-.299-2.673-.896-.623-.597-.934-1.483-.934-2.66v-5.503a.284.284 0 0 0-.284-.284h-1.638a.284.284 0 0 1-.284-.284v-2.105c0-.157.127-.284.284-.284h1.638a.284.284 0 0 0 .284-.284v-4.233c0-.157.127-.284.284-.284h2.624c.157 0 .284.127.284.284v4.233c0 .157.127.284.284.284h1.897c.157 0 .284.127.284.284v2.106a.284.284 0 0 1-.284.283h-1.897Zm12.017 5.761c.597-.622.895-1.435.895-2.439 0-1.003-.298-1.817-.895-2.439-.597-.623-1.38-.935-2.349-.935-.969 0-1.751.312-2.348.935-.597.622-.895 1.436-.895 2.439 0 1.004.298 1.817.895 2.439.597.623 1.379.935 2.348.935.969 0 1.752-.312 2.349-.935Zm-6.059 3.192c-.883-.501-1.579-1.232-2.089-2.192-.511-.961-.766-2.107-.766-3.439 0-1.332.255-2.478.766-3.439.51-.96 1.206-1.69 2.089-2.192a5.773 5.773 0 0 1 2.906-.753c.934 0 1.734.182 2.401.545a4.188 4.188 0 0 1 1.596 1.531h.051v-1.403c0-.157.127-.284.284-.284h2.599c.156 0 .283.127.283.284v11.422a.284.284 0 0 1-.283.284H92.2a.284.284 0 0 1-.284-.284v-1.403h-.051a4.18 4.18 0 0 1-1.596 1.531c-.667.363-1.467.545-2.401.545a5.773 5.773 0 0 1-2.906-.753Zm20.927-3.192c.597-.622.896-1.435.896-2.439 0-1.003-.299-1.817-.896-2.439-.596-.623-1.379-.935-2.348-.935-.969 0-1.752.312-2.349.935-.596.622-.895 1.436-.895 2.439 0 1.004.299 1.817.895 2.439.597.623 1.38.935 2.349.935.969 0 1.752-.312 2.348-.935Zm-3.944 3.4a4.167 4.167 0 0 1-1.596-1.531h-.052v1.403a.284.284 0 0 1-.284.284h-2.624a.284.284 0 0 1-.284-.284V11.755c0-.156.127-.283.284-.283h2.624c.157 0 .284.127.284.283v7.58h.052a4.174 4.174 0 0 1 1.596-1.531c.666-.364 1.466-.545 2.4-.545 1.056 0 2.025.251 2.907.752.882.502 1.578 1.233 2.089 2.193.51.961.766 2.107.766 3.439 0 1.333-.256 2.478-.766 3.439-.51.96-1.207 1.691-2.089 2.192a5.773 5.773 0 0 1-2.906.753c-.935 0-1.735-.181-2.401-.545Zm12.583.156h-2.624a.284.284 0 0 1-.284-.284V11.756c0-.157.127-.284.284-.284h2.624c.157 0 .284.127.284.284v17.598a.284.284 0 0 1-.284.284Zm6.191-9.213c-.435.34-.729.83-.881 1.471a.284.284 0 0 0 .278.346h4.994c.174 0 .31-.155.282-.326-.1-.607-.36-1.09-.78-1.452-.493-.424-1.138-.635-1.934-.635s-1.449.198-1.959.596Zm6.397-1.492c1.021 1.116 1.531 2.695 1.531 4.736v.339a.284.284 0 0 1-.284.284h-8.344a.286.286 0 0 0-.281.334c.134.758.469 1.361 1.007 1.807.614.511 1.388.765 2.323.765 1.206 0 2.322-.47 3.349-1.412a.282.282 0 0 1 .421.049l1.276 1.832a.283.283 0 0 1-.044.375 9.4 9.4 0 0 1-2.07 1.375c-.831.407-1.808.61-2.932.61-1.298 0-2.431-.264-3.4-.791a5.608 5.608 0 0 1-2.258-2.232c-.536-.96-.804-2.072-.804-3.335s.259-2.378.778-3.348a5.595 5.595 0 0 1 2.18-2.257c.934-.536 2.024-.805 3.27-.805 1.833 0 3.261.558 4.282 1.674Zm-64.517-5.507a1.938 1.938 0 1 1-3.876 0 1.938 1.938 0 0 1 3.876 0Z" shape-rendering="geometricPrecision" style="fill: rgb(221, 221, 221);" class="fills" data-testid="svg-path"/><path d="M14.946 6.354 2.467 11.517c-.694.287-.687 1.273.012 1.55l12.53 4.969a4.646 4.646 0 0 0 3.428 0l12.531-4.969c.698-.277.706-1.263.012-1.55L18.501 6.353a4.644 4.644 0 0 0-3.555.001Z" shape-rendering="geometricPrecision" style="fill: rgb(252, 180, 0);" class="fills" data-testid="svg-path"/><path d="M17.835 20.749v12.414c0 .59.596.995 1.144.777l13.964-5.419a.838.838 0 0 0 .527-.778V15.33a.836.836 0 0 0-1.144-.778l-13.963 5.42a.837.837 0 0 0-.528.777Z" shape-rendering="geometricPrecision" style="fill: rgb(24, 191, 255);" class="fills" data-testid="svg-path"/><path d="m14.575 21.39-4.144 2.001-.421.203-8.748 4.192C.708 28.053 0 27.649 0 27.033V15.382c0-.223.114-.416.268-.56a.935.935 0 0 1 .211-.159.891.891 0 0 1 .761-.059l13.265 5.256c.674.268.727 1.212.07 1.53Z" shape-rendering="geometricPrecision" style="fill: rgb(248, 43, 96);" class="fills" data-testid="svg-path"/><path d="m14.575 21.39-4.144 2.001L.268 14.822a.935.935 0 0 1 .211-.159.891.891 0 0 1 .761-.059l13.265 5.256c.674.268.727 1.212.07 1.53Z" shape-rendering="geometricPrecision" fill="rgba(0, 0, 0, 0.25)" style="fill: rgba(0, 0, 0, 0.25);" class="fills" data-testid="svg-path"/></g></g></g></svg>